<svg xmlns="http://www.w3.org/2000/svg" viewBox="0 0 5.24 5.11"><g transform="translate(5.24,0) rotate(90)"><path d="M3.12 3.38C3.12 3.57 2.96 3.73 2.77 3.73C2.57 3.73 2.42 3.57 2.42 3.38C2.42 3.18 2.57 3.03 2.77 3.03C2.96 3.03 3.12 3.18 3.12 3.38M2.24 4.49L2.83 4.88L5.11 4.88L5.11 4.20L3.70 4.20L3.70 2.51L5.11 2.51L5.11 1.92L2.81 1.91L2.23 2.24L1.45 3.38L2.24 4.49ZM4.93 2.39H5.11V4.65H4.93ZZM3.68 2.33L5.10 4.24L4.96 4.34L3.53 2.44L3.68 2.33ZM3.68 4.35L5.10 2.44L4.96 2.33L3.53 4.24L3.68 4.35ZM2.09 2.12L3.12 1.48L3.01 1.32L1.93 2.00L1.94 2.01L1.94 2.01L1.04 3.38L1.04 3.39L1.94 4.71L1.94 4.71L1.94 4.72L2.81 5.24L2.92 5.08L2.10 4.59L1.25 3.38L2.09 2.12ZM0.74 0.00C0.33 0.00 0.00 0.38 0.00 0.85C0.00 1.31 0.33 1.69 0.74 1.69L0.83 1.68L5.10 1.68L5.10 0.00L0.74 0.00L0.74 0.00Z" fill-rule="evenodd"/></g></svg>
