<svg xmlns="http://www.w3.org/2000/svg" viewBox="0 0 100 100"><path fill-rule="nonzero" d="M82.09 45.24C81.56 45.34 81.47 45.51 81.09 45.63C80.56 45.79 79.99 45.92 79.44 46.04C79.22 46.08 79.03 46.11 78.81 46.16C78.53 46.24 78.27 46.32 78 46.4C77.73 46.48 77.44 46.48 77.2 46.56C77.12 46.59 76.94 46.61 76.96 46.69C77.13 46.67 77.3 46.76 77.46 46.77C77.74 46.78 78.03 46.83 78.29 46.89C78.53 46.96 78.72 47.04 78.97 47.08C79.23 47.12 79.53 47.21 79.76 47.29C80.24 47.48 80.69 47.74 80.71 48.14C80.72 48.32 80.68 48.5 80.72 48.67C80.74 48.74 80.76 48.8 80.75 48.86C80.75 48.99 80.68 49.12 80.65 49.24C80.59 49.48 80.62 49.71 80.55 49.95C80.48 50.18 80.37 50.42 80.33 50.66C80.22 51.15 79.95 51.58 79.72 52.05C79.58 52.33 79.41 52.6 79.27 52.88C79.2 53.02 79.16 53.16 79.1 53.3C79.02 53.47 78.89 53.62 78.81 53.79C78.7 53.97 78.65 54.19 78.46 54.35C78.36 54.45 78.19 54.52 78.11 54.62C77.25 55.58 75.85 56.28 74.27 56.54C73.41 56.67 72.56 56.86 71.7 56.98C71.39 57.02 71.1 57.02 70.81 57.02C70.75 57.02 70.69 57.03 70.63 57.03C70.38 57.07 70.12 57.07 69.85 57.1C69.09 57.17 68.35 57.14 67.62 57.01C67.47 56.99 67.32 56.94 67.15 56.92C66.99 56.89 66.85 56.87 66.71 56.82C66.54 56.78 66.37 56.76 66.21 56.72C66.06 56.68 65.95 56.61 65.82 56.55C65.5 56.4 65.23 56.23 64.94 56.07C64.78 55.97 64.58 55.9 64.43 55.8C64.32 55.71 64.19 55.61 64.06 55.53C63.81 55.39 63.55 55.24 63.31 55.08C63.2 55 63.11 54.9 63 54.82C62.87 54.72 62.75 54.65 62.65 54.55C62.55 54.46 62.39 54.35 62.39 54.25C62.39 54.16 62.46 54.06 62.49 53.97C62.53 53.88 62.56 53.76 62.55 53.66C62.55 53.66 62.56 53.66 62.56 53.65C62.42 53.54 62.26 53.44 62.08 53.37C61.54 53.16 61.48 53.29 61.01 53.45C60.33 53.67 59.53 53.82 58.84 54.14C57.62 54.72 56.62 55.21 55.2 55.51C55.56 55.12 56.13 54.87 56.53 54.5C56.83 54.23 57.07 53.91 57.39 53.64C58.24 52.87 59.41 52.35 60.21 51.56C60.91 50.87 61.47 50.25 62.3 49.61C63.17 48.93 64.3 48.46 65.25 47.88C65.34 47.83 65.43 47.79 65.52 47.74L65.53 47.74C65.53 47.74 65.53 47.74 65.53 47.74C65.65 47.76 65.76 47.77 65.88 47.81C65.96 47.83 66.06 47.84 66.15 47.86C66.21 47.88 66.24 47.92 66.3 47.94C66.4 47.99 66.52 48.02 66.63 48.06C66.91 48.23 67.18 48.39 67.46 48.55C67.68 48.7 67.89 48.85 68.12 48.99C68.36 49.13 68.59 49.26 68.8 49.42C69.16 49.69 69.53 49.97 69.89 50.24C70.04 50.36 70.18 50.47 70.32 50.6C70.39 50.66 70.43 50.71 70.48 50.78C70.54 50.84 70.62 50.88 70.68 50.95C70.96 51.22 71.25 51.5 71.47 51.79C71.67 52.05 71.89 52.33 72.07 52.6C72.22 52.84 72.42 53.06 72.62 53.28C72.8 53.46 72.96 53.62 73.13 53.8C73.31 53.96 73.49 54.15 73.71 54.29C73.87 54.42 74 54.56 74.16 54.68C74.26 54.75 74.39 54.83 74.48 54.91C74.43 54.82 74.55 54.66 74.56 54.57C74.57 54.51 74.52 54.45 74.52 54.4C74.53 54.33 74.54 54.28 74.54 54.22C74.54 54.15 74.57 54.09 74.56 54.03C74.55 53.95 74.56 53.89 74.57 53.82C74.59 53.73 74.57 53.67 74.57 53.6C74.58 53.53 74.6 53.49 74.59 53.42C74.57 53.29 74.56 53.16 74.57 53.04C74.58 52.85 74.53 52.68 74.49 52.49C74.45 52.33 74.41 52.15 74.37 51.98C74.34 51.89 74.32 51.79 74.3 51.69C74.27 51.56 74.2 51.47 74.15 51.35C74.11 51.22 74.06 51.11 74 50.98C73.96 50.9 73.87 50.82 73.83 50.74C73.76 50.6 73.74 50.45 73.67 50.31C73.63 50.23 73.58 50.14 73.54 50.06C73.5 49.99 73.45 49.9 73.4 49.82C73.3 49.69 73.22 49.54 73.09 49.42C72.94 49.28 72.8 49.14 72.66 48.99C72.5 48.83 72.32 48.67 72.17 48.5C72 48.3 71.79 48.09 71.59 47.9C71.5 47.82 71.44 47.73 71.36 47.66C71.27 47.58 71.15 47.55 71.04 47.49C70.81 47.36 70.62 47.2 70.38 47.07C70.12 46.92 69.78 46.84 69.49 46.71C69.27 46.61 69.01 46.54 68.75 46.48C70.27 46.07 71.88 45.78 73.4 45.53C74.89 45.28 76.38 45.02 77.87 44.77C78.66 44.63 79.22 44.7 79.98 44.66C80.69 44.62 81.46 44.2 81.81 44.81C81.48 44.63 82.99 44.3 83.48 44.83C83.15 45.16 82.6 45.14 82.09 45.24M59.69 68.28C59.29 68.2 58.87 68.16 58.42 68.16C55.51 68.16 53.64 69.74 52.78 71.8C51.99 71.97 51.19 72.07 50.38 72C50 71.98 49.65 71.91 49.31 71.81C48.52 69.61 46.6 67.86 43.55 67.86C42.82 67.86 42.16 67.96 41.55 68.15C41.24 67.41 41.68 66.46 42.89 66.48C45.71 66.53 47.42 67.17 49.86 68.14C51.53 68.8 52.02 68.06 53.58 67.53C55.06 67.04 56.69 66.97 58.25 66.93C59.29 66.91 59.75 67.61 59.69 68.28M36.01 53.31C35.84 53.38 35.68 53.49 35.55 53.59L35.55 53.6C35.55 53.6 35.55 53.6 35.55 53.6C35.55 53.71 35.58 53.82 35.6 53.91C35.63 54 35.71 54.1 35.71 54.19C35.72 54.29 35.56 54.41 35.47 54.49C35.36 54.6 35.23 54.68 35.12 54.76C35 54.85 34.92 54.95 34.81 55.04C34.57 55.19 34.31 55.34 34.05 55.49C33.93 55.57 33.8 55.66 33.68 55.75C33.54 55.85 33.35 55.93 33.19 56.03C32.89 56.2 32.64 56.37 32.32 56.52C32.18 56.58 32.08 56.65 31.93 56.69C31.76 56.73 31.59 56.75 31.43 56.8C31.29 56.84 31.15 56.87 30.98 56.9C30.82 56.92 30.67 56.97 30.52 57C29.79 57.13 29.04 57.17 28.28 57.1C28.02 57.07 27.76 57.08 27.5 57.04C27.44 57.03 27.39 57.03 27.33 57.03C27.04 57.03 26.75 57.03 26.44 57C25.58 56.89 24.71 56.7 23.86 56.58C22.29 56.33 20.87 55.64 20.01 54.68C19.92 54.58 19.75 54.52 19.64 54.42C19.46 54.26 19.4 54.04 19.29 53.86C19.21 53.69 19.08 53.54 19 53.38C18.93 53.23 18.88 53.1 18.82 52.96C18.68 52.68 18.5 52.41 18.36 52.13C18.13 51.67 17.85 51.22 17.74 50.75C17.69 50.51 17.58 50.27 17.51 50.03C17.44 49.8 17.47 49.57 17.4 49.33C17.37 49.21 17.3 49.08 17.29 48.95C17.29 48.88 17.32 48.83 17.32 48.76C17.36 48.59 17.32 48.41 17.33 48.23C17.35 47.83 17.79 47.57 18.27 47.37C18.49 47.29 18.79 47.2 19.05 47.16C19.3 47.11 19.5 47.03 19.73 46.96C19.99 46.89 20.28 46.85 20.56 46.83C20.72 46.82 20.89 46.73 21.05 46.75C21.08 46.67 20.9 46.65 20.82 46.62C20.57 46.54 20.29 46.54 20.02 46.47C19.75 46.39 19.48 46.31 19.21 46.24C18.99 46.17 18.8 46.15 18.57 46.12C18.03 46.01 17.45 45.88 16.92 45.72C16.53 45.61 16.44 45.44 15.91 45.34C15.4 45.24 14.86 45.27 14.52 44.94C15 44.4 16.52 44.73 16.18 44.91C16.53 44.29 17.3 44.71 18.01 44.74C18.78 44.78 19.34 44.7 20.13 44.84C21.62 45.08 23.12 45.32 24.61 45.56C26.13 45.8 27.74 46.07 29.26 46.48C29 46.54 28.75 46.6 28.53 46.71C28.24 46.84 27.91 46.92 27.65 47.07C27.42 47.2 27.22 47.37 26.99 47.5C26.88 47.56 26.76 47.59 26.67 47.67C26.59 47.74 26.53 47.83 26.45 47.92C26.25 48.11 26.04 48.31 25.86 48.52C25.72 48.7 25.54 48.85 25.39 49.02C25.24 49.16 25.11 49.3 24.96 49.44C24.83 49.57 24.75 49.72 24.66 49.86C24.61 49.93 24.56 50.01 24.52 50.09C24.48 50.17 24.43 50.26 24.39 50.35C24.33 50.48 24.31 50.63 24.24 50.77C24.2 50.85 24.11 50.93 24.07 51.02C24.01 51.14 23.96 51.26 23.93 51.38C23.88 51.51 23.81 51.59 23.78 51.72C23.76 51.83 23.74 51.93 23.71 52.02L23.59 52.53C23.55 52.72 23.51 52.89 23.52 53.08C23.53 53.2 23.53 53.33 23.51 53.46C23.5 53.52 23.52 53.57 23.53 53.64C23.54 53.71 23.51 53.77 23.53 53.86C23.54 53.92 23.55 53.99 23.54 54.07C23.54 54.13 23.56 54.19 23.56 54.26C23.55 54.32 23.57 54.37 23.58 54.44C23.58 54.49 23.54 54.55 23.54 54.61C23.55 54.69 23.68 54.86 23.63 54.95C23.72 54.86 23.85 54.79 23.95 54.71C24.12 54.6 24.24 54.45 24.4 54.32C24.61 54.18 24.79 53.99 24.97 53.83C25.14 53.65 25.3 53.48 25.47 53.3C25.67 53.08 25.86 52.86 26.01 52.62C26.19 52.34 26.41 52.07 26.61 51.8C26.82 51.51 27.12 51.23 27.39 50.96C27.45 50.89 27.53 50.85 27.59 50.78C27.64 50.72 27.68 50.66 27.75 50.61C27.88 50.48 28.02 50.36 28.17 50.24C28.52 49.96 28.9 49.69 29.25 49.42C29.46 49.25 29.69 49.12 29.93 48.97C30.16 48.84 30.36 48.68 30.58 48.53C30.85 48.37 31.13 48.2 31.41 48.05C31.51 47.99 31.63 47.96 31.74 47.91C31.79 47.89 31.83 47.85 31.88 47.83C31.97 47.81 32.07 47.8 32.15 47.78C32.27 47.74 32.38 47.73 32.5 47.71C32.5 47.71 32.51 47.71 32.51 47.7C32.6 47.75 32.7 47.8 32.78 47.85C33.74 48.43 34.88 48.88 35.75 49.55C36.6 50.18 37.16 50.79 37.87 51.49C38.67 52.28 39.85 52.77 40.71 53.54C41.03 53.82 41.28 54.12 41.58 54.39C41.98 54.76 42.56 55.02 42.93 55.4C41.5 55.1 40.5 54.63 39.26 54.05C38.57 53.73 37.78 53.59 37.09 53.37C36.62 53.22 36.56 53.1 36.01 53.31M98.95 81.23C98.45 80.35 98.1 79.46 97.32 78.69C96.06 77.45 94.2 76.12 92.49 75.33C90.69 74.5 88.79 73.75 86.95 72.97C86.72 72.89 86.49 72.76 86.25 72.65C86.58 72.13 86.78 71.6 87.03 71.02C87.39 70.23 87.88 69.47 88.25 68.68C89.17 66.67 90.27 64.78 91.38 62.84C91.67 62.34 91.79 61.79 91.98 61.26C92.33 60.21 92.7 59.25 92.89 58.19C93.53 56.55 93.86 54.85 93.92 53.13C93.96 53.02 93.99 52.91 94.02 52.79C94.13 52.28 94.06 51.74 94.06 51.21C94.06 50.37 93.96 49.71 93.66 48.9C93.61 48.78 93.55 48.65 93.49 48.52C93.1 46.72 92.45 44.92 91.63 43.18C91.66 42.97 91.68 42.74 91.66 42.49C91.64 42.09 91.48 41.9 91.4 41.51C91.24 40.65 90.68 39.71 90.26 38.9C89.87 38.15 89.12 37.26 88.43 36.71C88.15 36.49 87.79 36.33 87.8 35.96C87.8 35.71 88.09 35.24 88.2 34.99C88.7 33.93 89.76 33.14 90.32 32.08C90.58 31.59 90.94 31.08 91.1 30.57C91.22 30.16 91.45 29.86 91.61 29.47C91.98 28.52 91.41 27.53 91.12 26.66C90.86 25.87 90.57 25.16 90.58 24.32C90.59 23.97 90.54 23.72 90.46 23.43C90.39 23.22 90.15 22.88 90.11 22.71C89.99 22.19 89.89 21.25 90.04 20.73C90.18 20.22 90.54 19.69 90.79 19.17C91.05 18.6 91.35 18.03 91.62 17.48C91.65 17.41 91.68 17.34 91.71 17.28C88.12 16.09 88.63 10.74 93.25 10.74C93.86 10.74 94.39 10.84 94.85 11.01C94.99 10.63 95.14 10.26 95.26 9.9C96.07 7.6 96.07 4.15 92.73 3.32C91.89 3.12 90.59 3.54 89.78 3.78C88.85 4.07 88.1 4.76 87.37 5.29C86.23 6.14 85.09 6.95 83.92 7.77C83.08 8.37 81.89 8.92 81.2 9.61C80.7 10.12 80.2 10.48 79.56 10.89C77.96 11.92 76.35 12.94 74.61 13.81C73.79 14.21 73.23 14.24 72.28 14.24C71.19 14.24 70.19 14.17 69.1 13.98L69 13.8L68.25 13.8C67.13 13.51 66.05 13.09 64.95 12.89C64.17 12.75 63.37 12.88 62.58 12.99C61.59 12.58 61.07 11.64 60.01 11.28C58.93 10.91 57.44 11.07 56.38 11.34C55.58 11.54 54.72 11.89 53.85 12.17C53.3 11.83 52.77 11.47 52.12 11.33C51.29 11.15 50.65 11.59 50 11.99C49.35 11.59 48.71 11.15 47.88 11.33C47.23 11.47 46.7 11.83 46.15 12.17C45.28 11.89 44.42 11.54 43.62 11.34C42.56 11.07 41.07 10.91 39.99 11.28C38.93 11.64 38.41 12.58 37.42 12.99C36.63 12.88 35.83 12.75 35.05 12.89C33.95 13.09 32.87 13.51 31.75 13.8L31 13.8L30.9 13.98C29.82 14.17 28.81 14.24 27.72 14.24C26.77 14.24 26.21 14.21 25.39 13.81C23.65 12.94 22.04 11.92 20.44 10.89C19.8 10.48 19.3 10.12 18.8 9.61C18.11 8.92 16.92 8.37 16.08 7.77C14.91 6.95 13.77 6.14 12.63 5.29C11.9 4.76 11.15 4.07 10.22 3.78C9.42 3.54 8.11 3.12 7.27 3.32C3.93 4.15 3.93 7.6 4.74 9.9C4.97 10.57 5.29 11.26 5.41 11.96C5.48 12.32 5.53 12.57 5.74 12.91C6.26 13.73 6.23 14.76 6.8 15.54C7.01 15.85 7.33 16 7.6 16.24C8.03 16.64 8.15 17 8.38 17.48C8.65 18.03 8.95 18.6 9.21 19.17C9.46 19.69 9.82 20.22 9.96 20.73C10.11 21.25 10.01 22.19 9.89 22.71C9.85 22.88 9.61 23.22 9.54 23.43C9.46 23.72 9.41 23.97 9.42 24.32C9.43 25.16 9.15 25.87 8.88 26.66C8.59 27.53 8.02 28.52 8.39 29.47C8.55 29.86 8.78 30.16 8.9 30.57C9.06 31.08 9.43 31.59 9.68 32.08C10.24 33.14 11.3 33.93 11.8 34.99C11.91 35.24 12.2 35.71 12.21 35.96C12.21 36.33 11.85 36.49 11.57 36.71C10.88 37.26 10.13 38.15 9.74 38.9C9.32 39.71 8.76 40.65 8.6 41.51C8.53 41.9 8.36 42.09 8.34 42.49C8.32 42.74 8.34 42.97 8.37 43.18C7.55 44.92 6.9 46.72 6.51 48.52C6.45 48.65 6.4 48.78 6.34 48.9C6.04 49.71 5.94 50.37 5.94 51.21C5.94 51.74 5.87 52.28 5.98 52.79C6.01 52.91 6.04 53.02 6.08 53.13C6.14 54.85 6.47 56.55 7.11 58.19C7.3 59.25 7.67 60.21 8.02 61.26C8.21 61.79 8.33 62.34 8.62 62.84C9.74 64.78 10.83 66.67 11.75 68.68C12.12 69.47 12.61 70.23 12.97 71.02C13.22 71.6 13.42 72.13 13.75 72.65C13.51 72.76 13.28 72.89 13.05 72.97C11.21 73.75 9.31 74.5 7.51 75.33C5.8 76.12 3.94 77.45 2.68 78.69C1.91 79.46 1.55 80.35 1.05 81.23C0.71 81.85 0.24 82.44 0 83.09C0.45 82.56 1.22 82.18 1.83 81.8C3.38 80.84 4.78 79.99 6.48 79.24C7.63 78.74 8.71 78.18 9.87 77.71C10.52 77.46 11.18 77.25 11.77 76.91C12.86 76.26 14.07 75.92 15.29 75.51C15.39 75.47 15.49 75.43 15.6 75.4C15.67 75.47 15.74 75.54 15.81 75.6C16.3 75.99 16.79 76.37 17.29 76.74C17.04 76.9 16.79 77.08 16.53 77.26C15.22 78.17 14.09 79.27 12.88 80.27C11.86 81.13 10.66 81.92 9.96 82.99C9.72 83.35 9.34 83.86 9.41 84.29C9.44 84.54 9.32 84.69 9.65 84.78C10.07 84.89 11.54 83.79 11.84 83.64C13.73 82.71 15.49 81.61 17.37 80.69C17.9 80.43 18.51 80.34 19.05 80.09C19.38 79.95 19.62 79.87 19.97 79.81C20.23 79.77 20.46 79.73 20.7 79.69C21.12 80.11 21.53 80.54 21.96 80.96C21.12 82.12 20.14 82.82 18.87 83.62C18.06 84.13 17.17 85.59 17.46 86.48C18.42 85.89 19.16 85.38 20.29 85.02C21.46 84.65 22.54 84.02 23.73 83.73C24.06 83.64 24.42 83.6 24.79 83.58C27.59 86.05 30.61 88.34 33.85 90.42C37.26 92.85 41.16 95.05 45.25 96.23C46.89 96.7 48.46 96.88 50 96.86C51.54 96.88 53.12 96.7 54.75 96.23C58.84 95.05 62.74 92.85 66.15 90.42C69.39 88.34 72.41 86.05 75.21 83.58C75.58 83.6 75.94 83.64 76.27 83.73C77.46 84.02 78.54 84.65 79.71 85.02C80.84 85.38 81.58 85.89 82.54 86.48C82.83 85.59 81.94 84.13 81.13 83.62C79.86 82.82 78.88 82.12 78.04 80.96C78.47 80.54 78.88 80.11 79.3 79.69C79.54 79.73 79.77 79.77 80.03 79.81C80.38 79.87 80.62 79.95 80.95 80.09C81.49 80.34 82.1 80.43 82.63 80.69C84.51 81.61 86.27 82.71 88.16 83.64C88.46 83.79 89.93 84.89 90.35 84.78C90.68 84.69 90.56 84.54 90.59 84.29C90.66 83.86 90.28 83.35 90.05 82.99C89.34 81.92 88.14 81.13 87.12 80.27C85.91 79.27 84.78 78.17 83.48 77.26C83.21 77.08 82.96 76.9 82.71 76.74C83.21 76.37 83.7 75.99 84.19 75.6C84.26 75.54 84.33 75.47 84.4 75.4C84.51 75.43 84.61 75.47 84.71 75.51C85.94 75.92 87.14 76.26 88.23 76.91C88.82 77.25 89.48 77.46 90.13 77.71C91.29 78.18 92.37 78.74 93.52 79.24C95.22 79.99 96.63 80.84 98.17 81.8C98.78 82.18 99.55 82.56 100 83.09C99.76 82.44 99.29 81.85 98.95 81.23"/></svg>
