<svg xmlns="http://www.w3.org/2000/svg" viewBox="0 0 100 100"><path fill-rule="nonzero" d="M99.98 36.9C99.87 37.34 99.95 37.8 99.59 38.12C99.31 38.37 98.97 38.54 98.61 38.71L98.61 38.71C98.61 38.71 98.61 38.71 98.61 38.71C98.12 39.1 97.43 39.19 96.84 39.38C95.78 39.71 94.7 40.01 93.64 40.34C91.57 40.98 89.47 41.47 87.45 42.27C85.72 42.95 83.99 43.8 82.19 44.31C81.36 44.54 80.53 44.78 79.72 45.06C79.54 45.13 78.72 45.38 78.03 45.63C77.92 45.69 77.81 45.76 77.69 45.82C77.68 45.83 77.66 45.85 77.64 45.86C77.63 45.87 77.6 45.88 77.59 45.88C77.48 45.94 77.36 46 77.25 46.05C77.19 46.08 77.14 46.11 77.09 46.13C77.06 46.15 77.03 46.17 77 46.18C76.99 46.19 76.98 46.19 76.96 46.2C76.94 46.21 76.91 46.22 76.89 46.23C76.88 46.23 76.87 46.23 76.86 46.24C76.83 46.25 76.79 46.25 76.76 46.26C76.75 46.26 76.5 46.37 76.45 46.33C76.44 46.32 76.42 46.3 76.4 46.29C75.41 46.34 74.36 45.22 73.45 44.7C71.21 43.43 68.97 42.25 66.63 41.19C64.13 40.05 61.65 38.89 59.19 37.67C58.45 37.31 57.73 36.89 57 36.52C56.87 36.47 56.74 36.43 56.62 36.39C56.34 36.3 56.07 36.21 55.79 36.11C55.52 36.02 55.24 35.91 54.97 35.81C54.92 35.79 54.86 35.78 54.79 35.75C54.68 35.73 54.57 35.7 54.46 35.66C54.39 35.64 54.33 35.61 54.28 35.56C54.25 35.54 54.23 35.52 54.21 35.5C54.2 35.47 54.18 35.44 54.17 35.42C54.14 35.33 54.14 35.23 54.16 35.13C54.18 34.99 54.24 34.85 54.29 34.71C54.29 34.44 54.3 34.17 54.33 33.9C54.32 33.41 54.3 32.92 54.26 32.42C54.19 31.68 54.13 30.94 54.08 30.2C54.03 29.45 53.97 28.7 53.88 27.97C53.84 27.71 53.76 27.4 53.67 27.05C53.65 26.95 53.63 26.84 53.6 26.74C53.66 26.75 53.72 26.77 53.77 26.78C53.7 26.52 53.64 26.26 53.6 25.99C53.59 25.96 53.57 25.94 53.56 25.92C53.35 25.61 53.38 25.3 53.54 25.06C53.54 24.91 53.55 24.75 53.57 24.62C53.59 24.42 53.8 24.34 53.93 24.45C53.86 24.26 53.8 24.07 53.72 23.88C53.9 23.73 54.1 23.57 54.31 23.43C54.41 23.35 54.95 22.76 55.16 22.53C55.36 22.29 55.67 21.91 55.9 21.63C56.02 21.5 56.14 21.37 56.27 21.24C57.36 20.16 58.54 19.16 59.63 18.06C59.89 17.78 60.16 17.49 60.42 17.21C60.51 17.11 60.6 17.01 60.69 16.9C62.29 15.01 63.97 13.17 65.59 11.29C65.99 10.82 66.38 10.24 66.82 9.68C67.04 9.4 67.26 9.12 67.49 8.86C67.73 8.61 68.15 8.2 68.25 8.08C68.36 7.95 68.52 7.72 68.54 7.7C68.54 7.69 68.55 7.69 68.56 7.68C68.57 7.67 68.58 7.66 68.6 7.65C68.6 7.64 68.61 7.64 68.62 7.63C68.63 7.63 68.64 7.62 68.66 7.61C68.67 7.61 68.68 7.61 68.68 7.61C68.71 7.6 68.73 7.6 68.75 7.6C68.75 7.59 68.76 7.59 68.76 7.59L68.76 7.59C68.79 7.59 68.83 7.59 68.86 7.59C68.86 7.6 68.87 7.6 68.88 7.6C68.91 7.6 68.94 7.61 68.97 7.61C69.03 7.63 69.08 7.65 69.13 7.67C69.18 7.69 69.23 7.73 69.28 7.75C69.35 7.79 69.42 7.83 69.49 7.86C69.62 7.93 69.74 7.99 69.88 8.04C69.95 8.07 70.02 8.1 70.1 8.12C70.12 8.13 70.14 8.14 70.16 8.15C70.3 8.18 70.44 8.21 70.58 8.25C70.81 8.3 71.02 8.36 71.25 8.42C71.36 8.44 71.48 8.46 71.59 8.48C71.73 8.5 71.86 8.52 71.99 8.55C72.31 8.6 72.62 8.65 72.9 8.71C73.1 8.74 73.29 8.78 73.46 8.81C73.5 8.82 73.53 8.82 73.57 8.83C74.02 8.92 74.34 8.98 74.41 8.99C74.99 9.1 75.58 9.19 76.17 9.28C77.34 9.46 78.52 9.62 79.69 9.77C80.28 9.85 80.87 9.93 81.46 10.01C82.05 10.1 82.64 10.2 83.23 10.31C84.4 10.52 85.56 10.76 86.7 11.05C87.28 11.2 87.85 11.35 88.42 11.51C88.77 11.58 89.11 11.64 89.45 11.72C89.8 11.79 90.24 11.85 90.24 11.85C90.24 11.85 90.91 12.02 91.1 12.06C91.2 12.09 91.3 12.11 91.4 12.13C91.5 12.15 91.61 12.17 91.71 12.2C91.72 12.2 91.75 12.21 91.8 12.23C91.87 12.25 91.98 12.28 92.09 12.32C92.15 12.34 92.22 12.36 92.28 12.38C92.33 12.4 92.38 12.41 92.43 12.43C92.46 12.42 92.5 12.42 92.54 12.41L92.6 12.41C92.62 12.41 92.64 12.41 92.65 12.41C92.72 12.41 92.78 12.42 92.84 12.43C92.86 12.43 92.88 12.44 92.9 12.45C92.95 12.49 93.21 12.72 93.27 12.77C93.33 12.82 93.25 13.14 93.25 13.17C93.25 13.2 93.25 13.22 93.24 13.24C93.24 13.25 93.24 13.25 93.23 13.26C93.23 13.27 93.22 13.28 93.21 13.29C93.21 13.29 93.2 13.3 93.19 13.31C93.18 13.31 93.18 13.32 93.17 13.32C93.16 13.33 93.15 13.33 93.14 13.33C93.13 13.33 93.13 13.34 93.12 13.34L93.1 13.34C92.8 13.63 92.49 13.93 92.19 14.23C91.89 14.53 91.59 14.83 91.29 15.12C90.69 15.72 90.09 16.32 89.51 16.94C89.09 17.53 88.67 18.12 88.22 18.7C87.69 19.36 87.16 20.02 86.64 20.68C86.49 20.87 86.34 21.06 86.18 21.25C86.17 21.26 86.16 21.27 86.15 21.28C86.09 21.27 86.03 21.29 85.99 21.36C85.97 21.42 85.94 21.47 85.92 21.53C84.97 22.54 84.12 23.67 83.32 24.72C82.44 25.88 81.26 26.78 80.51 28.02C80.45 28.12 80.38 28.21 80.32 28.31C79.32 29.54 78.32 30.79 77.34 32.03C76.88 32.62 76.18 33.37 76.06 34.13C75.95 34.8 76.45 35.77 76.62 36.54C76.63 36.56 76.63 36.59 76.64 36.62C76.65 36.65 76.65 36.68 76.65 36.71C76.66 36.75 76.66 36.78 76.66 36.82C76.62 37.27 76.56 37.73 76.5 38.19C76.42 38.61 76.34 39.02 76.33 39.47C76.32 40.24 76.33 41.01 76.34 41.77C76.3 42.22 76.27 42.67 76.27 43.12C76.26 43.26 76.26 43.41 76.26 43.55C76.26 43.64 76.27 43.72 76.27 43.81L76.27 43.82C76.23 43.86 76.21 43.93 76.25 43.98C76.23 44.18 76.23 44.39 76.29 44.61C76.31 44.69 76.35 44.74 76.4 44.77C76.43 44.85 76.48 44.91 76.56 44.93C76.99 45.06 77.24 44.84 77.57 44.57C77.8 44.39 78.03 44.22 78.26 44.05C78.87 43.8 79.48 43.5 80.07 43.21C80.52 42.99 80.98 42.78 81.45 42.58C82.63 42.22 83.83 41.88 85.01 41.49C86.85 40.89 88.69 40.25 90.52 39.62C91.38 39.32 92.31 39.14 93.14 38.76C93.35 38.66 93.57 38.54 93.78 38.42C94.58 38.12 95.43 37.7 96.23 37.61C96.38 37.6 96.54 37.49 96.53 37.31C96.51 37.06 96.41 36.96 96.3 36.74C96.07 36.31 95.71 36.14 95.6 35.63C95.55 35.41 95.59 35.1 95.62 34.85C95.7 34.89 95.77 34.93 95.83 34.97C96 35.08 96.26 35.16 96.48 35.27C96.74 35.38 97.01 35.48 97.27 35.58C97.94 35.85 98.86 36.05 99.42 36.51C99.42 36.52 99.43 36.52 99.43 36.52C99.58 36.54 99.72 36.57 99.84 36.62C99.94 36.66 100 36.8 99.98 36.9"/><path fill-rule="nonzero" d="M90.09 31.02C91.45 30.61 92.66 30 93.89 29.38C93.94 29.36 93.99 29.33 94.05 29.31C94.28 29.36 94.67 29.47 94.9 29.43C94.7 29.87 94.54 30.33 94.42 30.8C94.14 31.09 93.83 31.48 93.86 31.87L93.86 31.89C93.84 31.96 93.82 32.04 93.82 32.11C93.77 32.72 93.82 33.36 93.85 33.99C93.82 34.2 93.79 34.39 93.73 34.58C93.66 34.82 93.67 35.08 93.71 35.35C93.7 35.54 93.7 35.72 93.72 35.9C93.63 36.23 93.49 36.53 93.33 36.81C93.31 36.82 93.3 36.83 93.28 36.84C93.17 36.89 93.02 36.9 92.9 36.96C92.72 37.04 92.57 37.17 92.4 37.27C91.9 37.39 91.39 37.51 90.91 37.65C89.52 38.07 88.02 38.25 86.67 38.8C86.07 39.04 85.49 39.3 84.9 39.57C84.82 39.59 84.73 39.61 84.64 39.62C84.63 39.58 84.6 39.55 84.54 39.57C84.43 39.62 84.32 39.67 84.21 39.71C84.05 39.75 83.92 39.78 83.85 39.81C83.79 39.82 83.73 39.84 83.67 39.86C83.55 39.89 83.44 39.93 83.32 39.97C83.07 40.02 82.81 40.08 82.56 40.16C82.47 40.18 82.47 40.27 82.51 40.32C82.46 40.34 82.41 40.36 82.37 40.38C82.09 40.49 81.8 40.61 81.53 40.74C81.09 40.86 80.64 40.98 80.25 41.19C80.19 41.22 80.24 41.29 80.29 41.29C80.51 41.26 80.73 41.2 80.94 41.13C80.8 41.2 80.67 41.27 80.54 41.34C80.28 41.44 80.04 41.57 79.78 41.75C79.49 41.89 79.19 42.02 78.89 42.12C78.85 42.08 78.79 42.05 78.73 42.07C78.3 42.15 78.61 40.9 78.71 40.18C78.78 40.13 78.8 40.03 78.75 39.97C78.76 39.88 78.76 39.8 78.75 39.75C78.74 39.73 78.73 39.72 78.72 39.71C78.7 39.66 78.67 39.62 78.63 39.59C78.63 39.55 78.64 39.52 78.64 39.48C78.64 39.08 78.4 39.01 78.62 38.66C78.66 38.59 78.71 38.53 78.76 38.47C78.9 38.3 79.02 38.17 79.05 37.92C79.05 37.88 79.03 37.85 79 37.84C79 37.68 78.89 37.53 78.77 37.44C78.65 37.35 78.57 37.27 78.5 37.17C78.48 36.72 78.44 36.25 78.36 35.77C78.34 35.58 78.3 35.39 78.25 35.23C78.24 35.16 78.22 35.08 78.2 35.01C78.25 34.64 78.34 34.28 78.47 33.94C78.67 33.67 78.84 33.4 79 33.21C79.37 32.76 79.74 32.3 80.1 31.84C81.2 30.76 82.11 29.66 83.12 28.38C83.9 27.39 84.62 26.25 85.45 25.24C85.64 25.32 85.82 25.39 86.01 25.48C86.18 25.56 86.35 25.64 86.52 25.71C87.21 26.02 87.9 26.31 88.63 26.5C88.97 26.6 89.3 26.69 89.65 26.79C90.6 27.04 91.55 27.32 92.48 27.62C91.34 28.52 90.14 29.29 88.8 29.98C88.68 30.04 88.57 30.1 88.45 30.16C87.88 30.37 87.31 30.59 86.75 30.88C86.56 30.97 86.37 31.07 86.18 31.18C86.05 31.24 85.92 31.3 85.79 31.35C85.62 31.43 85.44 31.49 85.26 31.57C85.22 31.58 85.2 31.61 85.2 31.64C85.03 31.72 84.87 31.8 84.71 31.89C84.7 31.89 84.69 31.89 84.68 31.9C84.64 31.91 84.6 31.93 84.58 31.96C84.29 32.1 84 32.26 83.73 32.42C83.67 32.45 83.6 32.47 83.54 32.49C83.49 32.51 83.47 32.54 83.47 32.57L83.47 32.58C83.44 32.6 83.41 32.62 83.37 32.64C83.32 32.68 83.29 32.72 83.29 32.77C82.81 33.02 82.29 33.3 82.29 33.3C82.28 33.29 82.26 33.3 82.26 33.31C82.26 33.32 82.26 33.33 82.26 33.33C82.21 33.35 82.17 33.37 82.13 33.39C82.09 33.41 82.1 33.48 82.14 33.49C82.57 33.64 83.08 33.2 83.44 33.02C83.45 33.01 83.47 33 83.48 32.99L83.51 32.99C84.32 32.77 85.12 32.54 85.92 32.3C87.07 32.1 88.24 31.69 89.36 31.25C89.61 31.17 89.85 31.1 90.09 31.02"/><path fill-rule="nonzero" d="M46.62 82.94C46.52 83.39 46.6 83.84 46.23 84.17C45.96 84.41 45.62 84.59 45.26 84.75L45.26 84.76C45.26 84.76 45.26 84.76 45.26 84.76C44.77 85.15 44.08 85.24 43.49 85.42C42.43 85.76 41.35 86.06 40.29 86.39C38.21 87.02 36.12 87.52 34.1 88.31C32.37 89 30.64 89.85 28.84 90.36C28.01 90.58 27.17 90.82 26.36 91.11C26.18 91.17 25.37 91.43 24.67 91.67C24.57 91.74 24.46 91.81 24.34 91.87C24.33 91.88 24.31 91.89 24.29 91.9C24.28 91.91 24.25 91.92 24.23 91.93C24.12 91.98 24.01 92.04 23.89 92.1C23.83 92.13 23.78 92.15 23.74 92.18C23.71 92.19 23.68 92.21 23.65 92.22C23.64 92.23 23.62 92.24 23.61 92.24C23.59 92.25 23.56 92.26 23.54 92.27C23.52 92.28 23.52 92.28 23.51 92.28C23.48 92.29 23.44 92.3 23.41 92.3C23.4 92.3 23.15 92.41 23.1 92.38C23.09 92.37 23.07 92.35 23.04 92.33C22.06 92.39 21.01 91.27 20.1 90.75C17.86 89.47 15.62 88.3 13.28 87.23C10.78 86.09 8.3 84.93 5.84 83.72C5.1 83.35 4.38 82.93 3.64 82.56C3.51 82.51 3.38 82.47 3.27 82.43C2.99 82.35 2.71 82.26 2.44 82.16C2.17 82.06 1.89 81.96 1.62 81.86C1.57 81.84 1.5 81.82 1.43 81.8C1.33 81.78 1.21 81.75 1.11 81.71C1.04 81.68 0.98 81.65 0.93 81.61C0.9 81.59 0.88 81.57 0.86 81.54C0.85 81.51 0.83 81.49 0.82 81.46C0.79 81.38 0.79 81.28 0.81 81.18C0.83 81.04 0.89 80.89 0.94 80.75C0.94 80.49 0.95 80.22 0.98 79.95C0.97 79.45 0.95 78.97 0.91 78.47C0.84 77.73 0.78 76.98 0.73 76.24C0.67 75.5 0.61 74.75 0.52 74.01C0.49 73.76 0.4 73.45 0.32 73.1C0.3 73 0.27 72.89 0.25 72.79C0.31 72.8 0.36 72.81 0.42 72.83C0.35 72.57 0.29 72.31 0.25 72.03C0.23 72.01 0.22 71.99 0.2 71.97C0 71.65 0.03 71.34 0.18 71.11C0.19 70.95 0.19 70.8 0.21 70.66C0.23 70.47 0.45 70.39 0.57 70.49C0.51 70.31 0.45 70.12 0.36 69.93C0.54 69.77 0.75 69.62 0.96 69.48C1.06 69.39 1.59 68.81 1.8 68.57C2.01 68.34 2.31 67.95 2.54 67.68C2.66 67.54 2.79 67.41 2.91 67.28C4.01 66.21 5.19 65.2 6.27 64.11C6.54 63.82 6.8 63.54 7.07 63.26C7.16 63.15 7.25 63.05 7.34 62.95C8.94 61.06 10.62 59.22 12.24 57.34C12.63 56.87 13.03 56.29 13.46 55.72C13.68 55.44 13.91 55.16 14.14 54.91C14.38 54.65 14.79 54.25 14.9 54.12C15 54 15.17 53.76 15.18 53.74C15.19 53.74 15.19 53.73 15.2 53.73C15.21 53.71 15.23 53.7 15.24 53.69C15.25 53.69 15.26 53.68 15.26 53.68C15.28 53.67 15.29 53.67 15.31 53.66C15.32 53.65 15.33 53.65 15.33 53.65C15.36 53.64 15.38 53.64 15.4 53.64C15.4 53.64 15.41 53.64 15.41 53.64L15.41 53.64C15.44 53.63 15.48 53.64 15.51 53.64C15.51 53.64 15.52 53.64 15.53 53.64C15.56 53.64 15.59 53.65 15.62 53.66C15.68 53.67 15.72 53.69 15.78 53.72C15.83 53.74 15.88 53.77 15.93 53.8C16 53.84 16.07 53.87 16.13 53.91C16.26 53.97 16.39 54.04 16.53 54.09C16.6 54.12 16.67 54.14 16.75 54.17C16.77 54.17 16.79 54.18 16.81 54.19C16.95 54.22 17.08 54.26 17.22 54.29C17.45 54.34 17.67 54.41 17.9 54.47C18.01 54.48 18.12 54.5 18.24 54.52C18.37 54.54 18.51 54.57 18.64 54.59C18.96 54.65 19.26 54.7 19.55 54.75C19.75 54.79 19.94 54.83 20.11 54.86C20.15 54.86 20.18 54.87 20.22 54.88C20.67 54.96 20.99 55.02 21.06 55.03C21.64 55.14 22.23 55.24 22.81 55.33C23.99 55.51 25.16 55.66 26.34 55.81C26.92 55.89 27.51 55.97 28.1 56.06C28.7 56.15 29.29 56.25 29.88 56.35C31.05 56.57 32.21 56.81 33.35 57.1C33.92 57.24 34.5 57.39 35.06 57.55C35.41 57.62 35.76 57.69 36.1 57.76C36.45 57.83 36.89 57.89 36.89 57.89C36.89 57.89 37.55 58.06 37.75 58.11C37.85 58.13 37.95 58.15 38.05 58.17C38.15 58.2 38.25 58.22 38.36 58.24C38.37 58.24 38.4 58.25 38.45 58.27C38.52 58.3 38.62 58.33 38.74 58.37C38.8 58.39 38.87 58.41 38.93 58.43C38.98 58.45 39.03 58.46 39.08 58.47C39.11 58.47 39.15 58.46 39.19 58.46L39.24 58.46C39.26 58.46 39.28 58.45 39.3 58.45C39.36 58.46 39.43 58.46 39.49 58.48C39.51 58.48 39.53 58.49 39.54 58.5C39.59 58.53 39.86 58.76 39.92 58.81C39.98 58.87 39.9 59.18 39.9 59.22C39.9 59.25 39.9 59.27 39.89 59.29C39.89 59.29 39.88 59.3 39.88 59.3C39.87 59.32 39.87 59.33 39.86 59.34C39.85 59.34 39.84 59.34 39.84 59.35C39.83 59.36 39.82 59.36 39.81 59.37C39.8 59.37 39.79 59.37 39.79 59.37C39.78 59.38 39.77 59.38 39.76 59.38L39.75 59.38C39.44 59.68 39.14 59.98 38.84 60.27C38.54 60.57 38.23 60.87 37.94 61.17C37.33 61.76 36.74 62.36 36.16 62.98C35.74 63.58 35.32 64.17 34.86 64.74C34.34 65.41 33.81 66.06 33.29 66.72C33.14 66.91 32.98 67.1 32.83 67.29C32.82 67.3 32.81 67.32 32.8 67.33C32.74 67.31 32.67 67.33 32.64 67.41C32.62 67.46 32.59 67.52 32.56 67.57C31.62 68.59 30.77 69.71 29.97 70.76C29.09 71.92 27.91 72.82 27.15 74.06C27.09 74.16 27.03 74.26 26.96 74.35C25.96 75.59 24.96 76.83 23.99 78.07C23.52 78.66 22.82 79.41 22.7 80.18C22.6 80.84 23.1 81.82 23.27 82.58C23.28 82.61 23.28 82.63 23.29 82.66C23.3 82.69 23.3 82.73 23.3 82.76C23.31 82.79 23.31 82.83 23.31 82.86C23.27 83.32 23.21 83.77 23.15 84.23C23.07 84.65 22.98 85.07 22.98 85.52C22.97 86.28 22.97 87.05 22.99 87.81C22.95 88.26 22.92 88.71 22.91 89.16C22.9 89.31 22.9 89.46 22.91 89.6C22.91 89.68 22.91 89.77 22.91 89.86L22.91 89.86C22.87 89.9 22.86 89.97 22.89 90.02C22.87 90.22 22.88 90.43 22.94 90.66C22.96 90.73 23 90.79 23.05 90.82C23.07 90.89 23.13 90.95 23.21 90.98C23.64 91.11 23.88 90.89 24.22 90.62C24.45 90.43 24.67 90.26 24.91 90.1C25.52 89.84 26.12 89.54 26.72 89.25C27.17 89.03 27.63 88.83 28.09 88.62C29.28 88.26 30.47 87.93 31.66 87.54C33.5 86.93 35.33 86.29 37.16 85.66C38.03 85.36 38.96 85.19 39.78 84.8C40 84.7 40.22 84.59 40.42 84.47C41.23 84.16 42.07 83.74 42.87 83.65C43.02 83.64 43.19 83.53 43.18 83.35C43.16 83.11 43.05 83 42.94 82.79C42.72 82.36 42.36 82.18 42.25 81.67C42.2 81.45 42.24 81.15 42.27 80.89C42.35 80.93 42.42 80.97 42.48 81.01C42.65 81.12 42.91 81.2 43.13 81.32C43.39 81.42 43.66 81.52 43.91 81.63C44.59 81.89 45.51 82.09 46.06 82.55C46.07 82.56 46.07 82.56 46.08 82.56C46.22 82.59 46.36 82.62 46.48 82.66C46.58 82.71 46.65 82.84 46.62 82.94"/><path fill-rule="nonzero" d="M36.74 77.07C38.1 76.65 39.31 76.04 40.53 75.43C40.59 75.4 40.64 75.38 40.69 75.35C40.93 75.41 41.32 75.52 41.55 75.48C41.35 75.92 41.19 76.38 41.06 76.85C40.79 77.14 40.47 77.52 40.5 77.92L40.5 77.93C40.48 78 40.47 78.08 40.46 78.15C40.42 78.77 40.46 79.4 40.49 80.04C40.46 80.24 40.44 80.44 40.38 80.63C40.31 80.87 40.32 81.13 40.36 81.39C40.35 81.58 40.35 81.77 40.37 81.95C40.28 82.28 40.14 82.58 39.97 82.86C39.95 82.86 39.94 82.88 39.93 82.88C39.82 82.94 39.66 82.95 39.54 83C39.36 83.08 39.22 83.21 39.05 83.32C38.54 83.44 38.04 83.56 37.56 83.7C36.16 84.11 34.67 84.3 33.31 84.85C32.72 85.08 32.13 85.34 31.55 85.62C31.47 85.63 31.38 85.65 31.29 85.67C31.28 85.63 31.25 85.6 31.19 85.62C31.08 85.66 30.96 85.72 30.85 85.76C30.69 85.8 30.57 85.83 30.49 85.85C30.43 85.86 30.37 85.88 30.32 85.9C30.2 85.93 30.09 85.97 29.97 86.02C29.71 86.07 29.45 86.12 29.21 86.2C29.12 86.23 29.12 86.31 29.16 86.37C29.11 86.39 29.06 86.41 29.02 86.42C28.74 86.54 28.45 86.65 28.17 86.78C27.73 86.9 27.29 87.02 26.9 87.23C26.84 87.26 26.89 87.34 26.94 87.33C27.16 87.3 27.37 87.24 27.58 87.17C27.45 87.24 27.31 87.32 27.18 87.39C26.93 87.49 26.68 87.61 26.43 87.79C26.14 87.94 25.84 88.07 25.54 88.16C25.5 88.12 25.43 88.09 25.37 88.11C24.95 88.2 25.25 86.94 25.36 86.23C25.42 86.18 25.44 86.07 25.39 86.02C25.4 85.92 25.4 85.84 25.39 85.8C25.39 85.78 25.38 85.77 25.37 85.76C25.35 85.71 25.32 85.66 25.27 85.63C25.27 85.6 25.28 85.56 25.28 85.52C25.29 85.13 25.04 85.05 25.26 84.7C25.31 84.63 25.35 84.57 25.4 84.52C25.54 84.35 25.67 84.22 25.7 83.96C25.7 83.92 25.68 83.9 25.65 83.89C25.65 83.73 25.53 83.58 25.41 83.49C25.3 83.39 25.21 83.32 25.14 83.21C25.13 82.77 25.08 82.29 25 81.82C24.98 81.62 24.95 81.44 24.9 81.28C24.88 81.2 24.86 81.13 24.84 81.05C24.89 80.68 24.99 80.33 25.12 79.99C25.31 79.72 25.49 79.45 25.65 79.25C26.01 78.8 26.38 78.34 26.75 77.89C27.85 76.8 28.76 75.71 29.77 74.42C30.55 73.43 31.27 72.3 32.1 71.28C32.28 71.36 32.47 71.44 32.65 71.52C32.82 71.6 33 71.68 33.17 71.76C33.85 72.06 34.55 72.35 35.28 72.55C35.61 72.64 35.95 72.74 36.29 72.83C37.24 73.09 38.2 73.36 39.13 73.66C37.99 74.57 36.79 75.33 35.44 76.03C35.33 76.09 35.21 76.15 35.1 76.21C34.53 76.41 33.96 76.63 33.39 76.92C33.2 77.02 33.01 77.12 32.82 77.23C32.69 77.28 32.57 77.34 32.44 77.4C32.26 77.47 32.08 77.54 31.9 77.61C31.87 77.62 31.85 77.65 31.84 77.69C31.68 77.77 31.52 77.85 31.36 77.93C31.35 77.93 31.34 77.94 31.33 77.94C31.29 77.95 31.25 77.97 31.23 78C30.93 78.15 30.65 78.31 30.37 78.47C30.32 78.49 30.25 78.52 30.19 78.54C30.14 78.55 30.12 78.58 30.12 78.62L30.12 78.62C30.09 78.65 30.05 78.67 30.01 78.69C29.97 78.72 29.94 78.77 29.93 78.81C29.46 79.07 28.94 79.34 28.94 79.35C28.93 79.34 28.91 79.34 28.91 79.35C28.91 79.36 28.9 79.37 28.9 79.38C28.86 79.4 28.82 79.42 28.77 79.44C28.73 79.46 28.75 79.52 28.79 79.53C29.22 79.68 29.73 79.24 30.09 79.06C30.1 79.06 30.12 79.05 30.13 79.04L30.16 79.04C30.97 78.82 31.77 78.58 32.57 78.34C33.72 78.15 34.88 77.74 36.01 77.29C36.25 77.22 36.5 77.14 36.74 77.07"/></svg>
